<svg viewBox="0 0 100 100" xmlns="http://www.w3.org/2000/svg">
  <defs>
    <!-- Gradientes para el paracaídas -->
    <linearGradient id="parachuteGradient" x1="0%" y1="0%" x2="100%" y2="100%">
      <stop offset="0%" style="stop-color:#7dd3fc"/>
      <stop offset="50%" style="stop-color:#38bdf8"/>
      <stop offset="100%" style="stop-color:#0ea5e9"/>
    </linearGradient>
    
    <!-- Gradiente para la caja -->
    <linearGradient id="boxGradient" x1="0%" y1="0%" x2="100%" y2="100%">
      <stop offset="0%" style="stop-color:#fbbf24"/>
      <stop offset="100%" style="stop-color:#f59e0b"/>
    </linearGradient>
    
    <!-- Sombra del paracaídas -->
    <filter id="shadow" x="-50%" y="-50%" width="200%" height="200%">
      <feDropShadow dx="0" dy="2" stdDeviation="3" flood-color="#0ea5e9" flood-opacity="0.3"/>
    </filter>
  </defs>
  
  <!-- Paracaídas principal -->
  <path d="M20 35 Q50 15 80 35 Q75 45 70 50 L65 45 Q50 25 35 45 L30 50 Q25 45 20 35 Z" 
        fill="url(#parachuteGradient)" 
        filter="url(#shadow)"/>
  
  <!-- Líneas del paracaídas -->
  <path d="M25 40 Q50 20 75 40" stroke="#0369a1" stroke-width="1" fill="none" opacity="0.6"/>
  <path d="M30 45 Q50 25 70 45" stroke="#0369a1" stroke-width="1" fill="none" opacity="0.4"/>
  
  <!-- Cuerdas del paracaídas -->
  <line x1="25" y1="48" x2="42" y2="70" stroke="#64748b" stroke-width="1.5"/>
  <line x1="38" y1="48" x2="46" y2="70" stroke="#64748b" stroke-width="1.5"/>
  <line x1="62" y1="48" x2="54" y2="70" stroke="#64748b" stroke-width="1.5"/>
  <line x1="75" y1="48" x2="58" y2="70" stroke="#64748b" stroke-width="1.5"/>
  
  <!-- Caja/paquete -->
  <rect x="42" y="70" width="16" height="12" rx="2" 
        fill="url(#boxGradient)" 
        stroke="#d97706" 
        stroke-width="1"/>
  
  <!-- Detalles de la caja -->
  <line x1="42" y1="76" x2="58" y2="76" stroke="#d97706" stroke-width="1"/>
  <line x1="50" y1="70" x2="50" y2="82" stroke="#d97706" stroke-width="1"/>
  
  <!-- Puntos de brillo en el paracaídas -->
  <circle cx="35" cy="32" r="2" fill="#ffffff" opacity="0.6"/>
  <circle cx="65" cy="35" r="1.5" fill="#ffffff" opacity="0.4"/>
</svg>